<?xml version="1.0" encoding="UTF-8"?><svg id="Layer_1" xmlns="http://www.w3.org/2000/svg" viewBox="0 0 1366 339.78"><defs><style>.cls-1{fill:#fff;}.cls-2{fill:#0ab27c;}</style></defs><rect class="cls-2" x="87.07" y="108.31" width="19.99" height="31.02"/><path class="cls-2" d="M172.45,38.58v100.75h-44.28v-36.17c0-4.02-1.55-7.46-4.65-10.31-3.06-2.81-6.7-4.21-10.93-4.21h-31.05c-4.23,0-7.88,1.4-10.93,4.21-3.1,2.85-4.65,6.29-4.65,10.31v36.17H21.66V38.58c0-8.64,7-15.64,15.65-15.64h119.49c8.64,0,15.64,7,15.64,15.64Z"/><rect class="cls-2" x="87.07" y="144.28" width="19.99" height="31.02"/><path class="cls-2" d="M172.45,144.28v100.74c0,8.64-7,15.65-15.64,15.65H37.31c-8.64,0-15.65-7-15.65-15.65v-100.74h44.29v36.17c0,4.03,1.55,7.46,4.65,10.31,3.06,2.81,6.71,4.21,10.93,4.21h31.05c4.23,0,7.88-1.4,10.93-4.21,3.1-2.84,4.65-6.28,4.65-10.31v-36.17h44.28Z"/><polygon class="cls-2" points="246.89 126.47 250.15 139.33 246.89 139.33 246.89 126.47"/><path class="cls-2" d="M335.01,38.58v100.75h-41.55v-50.69h-21.12v50.69h-4.55l-12.73-50.69h-29.29v50.69h-41.55V38.58c0-8.64,7-15.64,15.64-15.64h119.5c8.64,0,15.64,7,15.64,15.64Z"/><polygon class="cls-2" points="272.35 157.45 269.04 144.28 272.35 144.28 272.35 157.45"/><path class="cls-2" d="M335.01,144.28v100.74c0,8.64-7,15.65-15.64,15.65h-119.5c-8.64,0-15.64-7-15.64-15.65v-100.74h41.55v50.69h21.12v-50.69h4.51l12.83,50.69h29.23v-50.69h41.55Z"/><path class="cls-1" d="M496.05,38.58v100.75h-64.84v-31.02h20.55v-19.68h-62.22v19.68h20.61v31.02h-64.9V38.58c0-8.64,7-15.64,15.64-15.64h119.5c8.64,0,15.65,7,15.65,15.64Z"/><path class="cls-1" d="M496.05,144.28v100.74c0,8.64-7.01,15.65-15.65,15.65h-119.5c-8.64,0-15.64-7-15.64-15.65v-100.74h64.9v50.69h21.05v-50.69h64.84Z"/><path class="cls-1" d="M658.6,38.58v100.75h-64.83v-50.69h-21.12v50.69h-64.83V38.58c0-8.64,7-15.64,15.64-15.64h119.5c8.64,0,15.64,7,15.64,15.64Z"/><path class="cls-1" d="M658.6,144.28v100.74c0,8.64-7,15.65-15.64,15.65h-119.5c-8.64,0-15.64-7-15.64-15.65v-100.74h64.83v50.69h21.12v-50.69h64.83Z"/><polygon class="cls-1" points="770.33 139.33 773.36 124.9 773.36 139.33 770.33 139.33"/><polygon class="cls-1" points="718.18 124.9 721.24 139.33 718.18 139.33 718.18 124.9"/><path class="cls-1" d="M821.16,38.58v100.75h-26.69v-50.69h-29.29l-11.35,50.69h-16.06l-11.43-50.69h-29.29v50.69h-26.69V38.58c0-8.64,7-15.64,15.64-15.64h119.5c8.64,0,15.64,7,15.64,15.64Z"/><polygon class="cls-1" points="745.84 175.05 738.9 144.28 752.72 144.28 745.84 175.05"/><path class="cls-1" d="M821.16,144.28v100.74c0,8.64-7,15.65-15.64,15.65h-119.5c-8.64,0-15.64-7-15.64-15.65v-100.74h26.69v50.69h21.12v-50.69h4.1l10.73,50.69h25.65l10.63-50.69h4.07v50.69h21.12v-50.69h26.69Z"/><path class="cls-1" d="M983.73,38.58v100.75h-53.15v-7.39h-29.29v-23.63h35.2v-19.68h-56.32v50.69h-47.23V38.58c0-8.64,7-15.64,15.64-15.64h119.5c8.64,0,15.64,7,15.64,15.64Z"/><path class="cls-1" d="M983.73,144.28v100.74c0,8.64-7,15.65-15.64,15.65h-119.5c-8.64,0-15.64-7-15.64-15.65v-100.74h47.23v50.69h56.32v-19.67h-35.2v-23.63h29.29v-7.39h53.15Z"/><path class="cls-1" d="M1146.29,38.58v100.75h-79.48v-50.69h-21.12v50.69h-50.19V38.58c0-8.64,7-15.64,15.64-15.64h119.5c8.64,0,15.64,7,15.64,15.64Z"/><path class="cls-1" d="M1146.29,144.28v100.74c0,8.64-7,15.65-15.64,15.65h-119.5c-8.64,0-15.64-7-15.64-15.65v-100.74h50.19v50.69h50.4v-19.67h-29.29v-31.02h79.48Z"/><path class="cls-1" d="M1308.85,38.58v100.75h-58.72l16.03-50.69h-21.55c-3.05,10.32-6.77,27.22-11.15,50.69h-.07c-4.3-23.47-7.99-40.37-11.09-50.69h-21.55l16.06,50.69h-58.75V38.58c0-8.64,7-15.64,15.64-15.64h119.5c8.64,0,15.64,7,15.64,15.64Z"/><path class="cls-1" d="M1308.85,144.28v100.74c0,8.64-7,15.65-15.64,15.65h-119.5c-8.64,0-15.64-7-15.64-15.65v-100.74h60.31l4.55,14.36v36.32h21.12v-36.39l4.52-14.3h60.28Z"/><path class="cls-1" d="M1336.41,244.82c-4.37,0-7.93,3.56-7.93,7.93s3.56,7.93,7.93,7.93,7.93-3.56,7.93-7.93-3.56-7.93-7.93-7.93ZM1336.41,259.63c-3.8,0-6.89-3.09-6.89-6.89s3.09-6.89,6.89-6.89,6.89,3.09,6.89,6.89-3.09,6.89-6.89,6.89Z"/><path class="cls-1" d="M1336.61,255.35c-1.95,0-2.7-1.36-2.71-2.67-.01-1.32.81-2.74,2.71-2.74.69,0,1.39.24,1.9.74l.99-.96c-.81-.8-1.82-1.21-2.89-1.21-2.85,0-4.19,2.09-4.18,4.16.01,2.05,1.25,4.07,4.18,4.07,1.14,0,2.18-.37,3-1.17l-1.01-1.02c-.52.52-1.3.8-1.98.8Z"/><path class="cls-1" d="M754.61,308.25h10.27v5.73h-16.43v-31.02h16.43v5.73h-10.27v6.89h8.55v5.75h-8.55v6.91Z"/><path class="cls-1" d="M781.37,282.96h6.25l-6,31.02h-8.18l-6.02-31.02h6.23c1.12,5.69,2.41,14.06,3.86,25.11,1.47-11.07,2.75-19.44,3.86-25.11Z"/><path class="cls-1" d="M797.25,308.25h10.27v5.73h-16.43v-31.02h16.43v5.73h-10.27v6.89h8.55v5.75h-8.55v6.91Z"/><path class="cls-1" d="M818.2,294v19.98h-6.16v-31.02h8.55l5.04,20.07v-20.07h6.16v31.02h-8.53l-5.06-19.98Z"/><path class="cls-1" d="M841.65,288.69h-6.02v-5.73h18.16v5.73h-6v25.29h-6.14v-25.29Z"/><path class="cls-1" d="M894.98,282.96v31.02h-6.18v-20.44l-4.29,20.44h-7.49l-4.32-20.44v20.44h-6.16v-31.02h8.55l5.67,25.21,5.66-25.21h8.55Z"/><path class="cls-1" d="M906.62,307.69l-1.25,6.29h-6.23l6.02-31.02h8.18l6,31.02h-6.25l-1.22-6.29h-5.25ZM907.74,301.95h2.99l-1.51-13.22-1.49,13.22Z"/><path class="cls-1" d="M929.09,294v19.98h-6.16v-31.02h8.55l5.04,20.07v-20.07h6.16v31.02h-8.53l-5.06-19.98Z"/><path class="cls-1" d="M954.34,307.69l-1.25,6.29h-6.23l6.02-31.02h8.18l6,31.02h-6.25l-1.22-6.29h-5.25ZM955.46,301.95h2.99l-1.51-13.22-1.49,13.22Z"/><path class="cls-1" d="M982.33,302.92h-2.91v-5.73h9.09v12.57c0,1.17-.46,2.17-1.37,2.99-.89.82-1.95,1.24-3.18,1.24h-9.05c-1.24,0-2.3-.41-3.2-1.24-.9-.82-1.35-1.82-1.35-2.99v-22.56c0-1.17.45-2.17,1.35-3.01.9-.81,1.97-1.22,3.2-1.22h9.05c1.24,0,2.3.41,3.18,1.22.91.84,1.37,1.84,1.37,3.01v6.23h-6.18v-4.73h-5.83v19.55h5.83v-5.33Z"/><path class="cls-1" d="M1000.12,308.25h10.27v5.73h-16.43v-31.02h16.43v5.73h-10.27v6.89h8.55v5.75h-8.55v6.91Z"/><path class="cls-1" d="M1043.34,282.96v31.02h-6.18v-20.44l-4.29,20.44h-7.49l-4.32-20.44v20.44h-6.16v-31.02h8.55l5.67,25.21,5.66-25.21h8.55Z"/><path class="cls-1" d="M1055.58,308.25h10.27v5.73h-16.43v-31.02h16.43v5.73h-10.27v6.89h8.55v5.75h-8.55v6.91Z"/><path class="cls-1" d="M1076.52,294v19.98h-6.16v-31.02h8.55l5.04,20.07v-20.07h6.16v31.02h-8.53l-5.06-19.98Z"/><path class="cls-1" d="M1099.98,288.69h-6.02v-5.73h18.16v5.73h-6v25.29h-6.14v-25.29Z"/><path class="cls-1" d="M1136.4,288.69h-5.83v4.9c0,1.33.97,1.99,2.91,1.99,2.55,0,4.67.68,6.37,2.05,1.81,1.44,2.72,3.35,2.72,5.71v6.41c0,1.17-.46,2.17-1.37,2.99-.89.82-1.95,1.24-3.18,1.24h-9.05c-1.24,0-2.3-.41-3.2-1.24-.9-.82-1.35-1.82-1.35-2.99v-6.25h6.16v4.75h5.83v-4.9c0-1.34-.97-2.01-2.91-2.01-2.54,0-4.65-.68-6.35-2.03-1.81-1.44-2.72-3.35-2.72-5.71v-6.41c0-1.17.45-2.17,1.35-3.01.9-.81,1.97-1.22,3.2-1.22h9.05c1.24,0,2.3.41,3.18,1.22.91.84,1.37,1.84,1.37,3.01v6.23h-6.18v-4.73Z"/><path class="cls-1" d="M1161.22,282.96c1.24,0,2.3.41,3.18,1.22.91.84,1.37,1.84,1.37,3.01v22.56c0,1.17-.46,2.17-1.37,2.99-.89.82-1.95,1.24-3.18,1.24h-9.05c-1.24,0-2.3-.41-3.2-1.24-.9-.82-1.35-1.82-1.35-2.99v-22.56c0-1.17.45-2.17,1.35-3.01.9-.81,1.97-1.22,3.2-1.22h9.05ZM1153.77,288.69v19.55h5.83v-19.55h-5.83Z"/><path class="cls-1" d="M1171.72,282.96h16.43v5.73h-10.27v6.89h8.55v5.75h-8.55v12.64h-6.16v-31.02Z"/><path class="cls-1" d="M1195.41,288.69h-6.02v-5.73h18.16v5.73h-6v25.29h-6.14v-25.29Z"/><path class="cls-1" d="M1221.95,282.96h7.82l3.76,25.23c1.24-11.17,2.34-19.58,3.3-25.23h6.23l-5.29,31.02h-8.24l-3.67-22.33-3.67,22.33h-8.22l-5.33-31.02h6.23c.97,5.65,2.07,14.06,3.3,25.23l3.76-25.23Z"/><path class="cls-1" d="M1250.29,307.69l-1.25,6.29h-6.23l6.02-31.02h8.18l6,31.02h-6.25l-1.22-6.29h-5.25ZM1251.41,301.95h2.99l-1.51-13.22-1.49,13.22Z"/><path class="cls-1" d="M1272.75,302.92v11.06h-6.16v-31.02h13.61c1.24,0,2.3.41,3.18,1.22.91.84,1.37,1.84,1.37,3.01v7.99c0,2.03-.79,3.66-2.37,4.86,1.58,1.21,2.37,2.84,2.37,4.9v9.03h-6.18v-9.03c0-.57-.22-1.05-.66-1.45-.44-.39-.95-.58-1.54-.58h-3.63ZM1276.38,297.19c.59,0,1.11-.2,1.54-.6.44-.37.66-.84.66-1.41v-6.49h-5.83v8.49h3.63Z"/><path class="cls-1" d="M1296.77,308.25h10.27v5.73h-16.43v-31.02h16.43v5.73h-10.27v6.89h8.55v5.75h-8.55v6.91Z"/></svg>